<mxfile host="app.diagrams.net" agent="Mozilla/5.0 (Windows NT 10.0; Win64; x64) AppleWebKit/537.36 (KHTML, like Gecko) Chrome/129.0.0.0 Safari/537.36" version="24.8.0">
  <diagram id="C5RBs43oDa-KdzZeNtuy" name="Page-1">
    <mxGraphModel dx="4797" dy="3399" grid="1" gridSize="10" guides="1" tooltips="1" connect="1" arrows="1" fold="1" page="1" pageScale="1" pageWidth="827" pageHeight="1169" math="0" shadow="0">
      <root>
        <mxCell id="WIyWlLk6GJQsqaUBKTNV-0" />
        <mxCell id="WIyWlLk6GJQsqaUBKTNV-1" parent="WIyWlLk6GJQsqaUBKTNV-0" />
        <mxCell id="zoGyx74wpEw2PJnLEwkn-0" value="" style="edgeStyle=orthogonalEdgeStyle;rounded=0;orthogonalLoop=1;jettySize=auto;html=1;" edge="1" parent="WIyWlLk6GJQsqaUBKTNV-1" source="zoGyx74wpEw2PJnLEwkn-1" target="zoGyx74wpEw2PJnLEwkn-3">
          <mxGeometry relative="1" as="geometry" />
        </mxCell>
        <mxCell id="zoGyx74wpEw2PJnLEwkn-1" value="Mulai" style="ellipse;whiteSpace=wrap;html=1;" vertex="1" parent="WIyWlLk6GJQsqaUBKTNV-1">
          <mxGeometry x="150" y="-10" width="100" height="60" as="geometry" />
        </mxCell>
        <mxCell id="zoGyx74wpEw2PJnLEwkn-2" value="" style="edgeStyle=orthogonalEdgeStyle;rounded=0;orthogonalLoop=1;jettySize=auto;html=1;" edge="1" parent="WIyWlLk6GJQsqaUBKTNV-1" source="zoGyx74wpEw2PJnLEwkn-3" target="zoGyx74wpEw2PJnLEwkn-5">
          <mxGeometry relative="1" as="geometry" />
        </mxCell>
        <mxCell id="zoGyx74wpEw2PJnLEwkn-3" value="Users = admin" style="whiteSpace=wrap;html=1;" vertex="1" parent="WIyWlLk6GJQsqaUBKTNV-1">
          <mxGeometry x="140" y="150" width="120" height="60" as="geometry" />
        </mxCell>
        <mxCell id="zoGyx74wpEw2PJnLEwkn-4" value="" style="edgeStyle=orthogonalEdgeStyle;rounded=0;orthogonalLoop=1;jettySize=auto;html=1;" edge="1" parent="WIyWlLk6GJQsqaUBKTNV-1" source="zoGyx74wpEw2PJnLEwkn-5" target="zoGyx74wpEw2PJnLEwkn-7">
          <mxGeometry relative="1" as="geometry" />
        </mxCell>
        <mxCell id="zoGyx74wpEw2PJnLEwkn-5" value="Input" style="shape=parallelogram;perimeter=parallelogramPerimeter;whiteSpace=wrap;html=1;fixedSize=1;" vertex="1" parent="WIyWlLk6GJQsqaUBKTNV-1">
          <mxGeometry x="140" y="280" width="120" height="60" as="geometry" />
        </mxCell>
        <mxCell id="zoGyx74wpEw2PJnLEwkn-6" value="" style="edgeStyle=orthogonalEdgeStyle;rounded=0;orthogonalLoop=1;jettySize=auto;html=1;" edge="1" parent="WIyWlLk6GJQsqaUBKTNV-1" source="zoGyx74wpEw2PJnLEwkn-7" target="zoGyx74wpEw2PJnLEwkn-9">
          <mxGeometry relative="1" as="geometry" />
        </mxCell>
        <mxCell id="zoGyx74wpEw2PJnLEwkn-7" value="Reservations" style="shape=parallelogram;perimeter=parallelogramPerimeter;whiteSpace=wrap;html=1;fixedSize=1;" vertex="1" parent="WIyWlLk6GJQsqaUBKTNV-1">
          <mxGeometry x="140" y="420" width="120" height="60" as="geometry" />
        </mxCell>
        <mxCell id="zoGyx74wpEw2PJnLEwkn-8" value="" style="edgeStyle=orthogonalEdgeStyle;rounded=0;orthogonalLoop=1;jettySize=auto;html=1;" edge="1" parent="WIyWlLk6GJQsqaUBKTNV-1" source="zoGyx74wpEw2PJnLEwkn-9" target="zoGyx74wpEw2PJnLEwkn-13">
          <mxGeometry relative="1" as="geometry" />
        </mxCell>
        <mxCell id="zoGyx74wpEw2PJnLEwkn-9" value="Paket SPA" style="shape=parallelogram;perimeter=parallelogramPerimeter;whiteSpace=wrap;html=1;fixedSize=1;" vertex="1" parent="WIyWlLk6GJQsqaUBKTNV-1">
          <mxGeometry x="140" y="560" width="120" height="60" as="geometry" />
        </mxCell>
        <mxCell id="zoGyx74wpEw2PJnLEwkn-10" value="" style="edgeStyle=orthogonalEdgeStyle;rounded=0;orthogonalLoop=1;jettySize=auto;html=1;" edge="1" parent="WIyWlLk6GJQsqaUBKTNV-1" source="zoGyx74wpEw2PJnLEwkn-13" target="zoGyx74wpEw2PJnLEwkn-16">
          <mxGeometry relative="1" as="geometry" />
        </mxCell>
        <mxCell id="zoGyx74wpEw2PJnLEwkn-11" value="" style="edgeStyle=orthogonalEdgeStyle;rounded=0;orthogonalLoop=1;jettySize=auto;html=1;" edge="1" parent="WIyWlLk6GJQsqaUBKTNV-1" source="zoGyx74wpEw2PJnLEwkn-13" target="zoGyx74wpEw2PJnLEwkn-21">
          <mxGeometry relative="1" as="geometry" />
        </mxCell>
        <mxCell id="zoGyx74wpEw2PJnLEwkn-12" value="" style="edgeStyle=orthogonalEdgeStyle;rounded=0;orthogonalLoop=1;jettySize=auto;html=1;" edge="1" parent="WIyWlLk6GJQsqaUBKTNV-1" source="zoGyx74wpEw2PJnLEwkn-13" target="zoGyx74wpEw2PJnLEwkn-77">
          <mxGeometry relative="1" as="geometry" />
        </mxCell>
        <mxCell id="zoGyx74wpEw2PJnLEwkn-13" value="1. Login&lt;div&gt;2.Registrasi&lt;/div&gt;&lt;div&gt;3. Keluar&lt;/div&gt;" style="rhombus;whiteSpace=wrap;html=1;" vertex="1" parent="WIyWlLk6GJQsqaUBKTNV-1">
          <mxGeometry x="140" y="720" width="120" height="100" as="geometry" />
        </mxCell>
        <mxCell id="zoGyx74wpEw2PJnLEwkn-14" value="" style="edgeStyle=orthogonalEdgeStyle;rounded=0;orthogonalLoop=1;jettySize=auto;html=1;" edge="1" parent="WIyWlLk6GJQsqaUBKTNV-1" source="zoGyx74wpEw2PJnLEwkn-16" target="zoGyx74wpEw2PJnLEwkn-19">
          <mxGeometry relative="1" as="geometry" />
        </mxCell>
        <mxCell id="zoGyx74wpEw2PJnLEwkn-15" value="" style="edgeStyle=orthogonalEdgeStyle;rounded=0;orthogonalLoop=1;jettySize=auto;html=1;" edge="1" parent="WIyWlLk6GJQsqaUBKTNV-1" source="zoGyx74wpEw2PJnLEwkn-16" target="zoGyx74wpEw2PJnLEwkn-23">
          <mxGeometry relative="1" as="geometry" />
        </mxCell>
        <mxCell id="zoGyx74wpEw2PJnLEwkn-16" value="1" style="rhombus;whiteSpace=wrap;html=1;" vertex="1" parent="WIyWlLk6GJQsqaUBKTNV-1">
          <mxGeometry x="580" y="730" width="80" height="80" as="geometry" />
        </mxCell>
        <mxCell id="zoGyx74wpEw2PJnLEwkn-17" value="" style="edgeStyle=orthogonalEdgeStyle;rounded=0;orthogonalLoop=1;jettySize=auto;html=1;" edge="1" parent="WIyWlLk6GJQsqaUBKTNV-1" source="zoGyx74wpEw2PJnLEwkn-19" target="zoGyx74wpEw2PJnLEwkn-36">
          <mxGeometry relative="1" as="geometry" />
        </mxCell>
        <mxCell id="zoGyx74wpEw2PJnLEwkn-18" value="" style="edgeStyle=orthogonalEdgeStyle;rounded=0;orthogonalLoop=1;jettySize=auto;html=1;" edge="1" parent="WIyWlLk6GJQsqaUBKTNV-1" source="zoGyx74wpEw2PJnLEwkn-19" target="zoGyx74wpEw2PJnLEwkn-55">
          <mxGeometry relative="1" as="geometry" />
        </mxCell>
        <mxCell id="zoGyx74wpEw2PJnLEwkn-19" value="2" style="rhombus;whiteSpace=wrap;html=1;" vertex="1" parent="WIyWlLk6GJQsqaUBKTNV-1">
          <mxGeometry x="1130" y="730" width="80" height="80" as="geometry" />
        </mxCell>
        <mxCell id="zoGyx74wpEw2PJnLEwkn-20" style="edgeStyle=orthogonalEdgeStyle;rounded=0;orthogonalLoop=1;jettySize=auto;html=1;exitX=0;exitY=0.5;exitDx=0;exitDy=0;" edge="1" parent="WIyWlLk6GJQsqaUBKTNV-1" source="zoGyx74wpEw2PJnLEwkn-21">
          <mxGeometry relative="1" as="geometry">
            <mxPoint x="560" y="2325.238211495536" as="targetPoint" />
            <Array as="points">
              <mxPoint x="-190" y="760" />
              <mxPoint x="-290" y="760" />
              <mxPoint x="-290" y="2325" />
            </Array>
            <mxPoint x="-189.99999999999955" y="800" as="sourcePoint" />
          </mxGeometry>
        </mxCell>
        <mxCell id="zoGyx74wpEw2PJnLEwkn-21" value="3" style="rhombus;whiteSpace=wrap;html=1;" vertex="1" parent="WIyWlLk6GJQsqaUBKTNV-1">
          <mxGeometry x="-190" y="720" width="120" height="100" as="geometry" />
        </mxCell>
        <mxCell id="zoGyx74wpEw2PJnLEwkn-22" value="" style="edgeStyle=orthogonalEdgeStyle;rounded=0;orthogonalLoop=1;jettySize=auto;html=1;" edge="1" parent="WIyWlLk6GJQsqaUBKTNV-1" source="zoGyx74wpEw2PJnLEwkn-23" target="zoGyx74wpEw2PJnLEwkn-25">
          <mxGeometry relative="1" as="geometry" />
        </mxCell>
        <mxCell id="zoGyx74wpEw2PJnLEwkn-23" value="Input" style="shape=parallelogram;perimeter=parallelogramPerimeter;whiteSpace=wrap;html=1;fixedSize=1;" vertex="1" parent="WIyWlLk6GJQsqaUBKTNV-1">
          <mxGeometry x="560" y="900" width="120" height="60" as="geometry" />
        </mxCell>
        <mxCell id="zoGyx74wpEw2PJnLEwkn-24" value="" style="edgeStyle=orthogonalEdgeStyle;rounded=0;orthogonalLoop=1;jettySize=auto;html=1;" edge="1" parent="WIyWlLk6GJQsqaUBKTNV-1" source="zoGyx74wpEw2PJnLEwkn-25" target="zoGyx74wpEw2PJnLEwkn-29">
          <mxGeometry relative="1" as="geometry" />
        </mxCell>
        <mxCell id="zoGyx74wpEw2PJnLEwkn-25" value="&lt;div&gt;Buat&lt;/div&gt;Username&amp;nbsp;&lt;div&gt;Passworsd&lt;/div&gt;" style="shape=parallelogram;perimeter=parallelogramPerimeter;whiteSpace=wrap;html=1;fixedSize=1;" vertex="1" parent="WIyWlLk6GJQsqaUBKTNV-1">
          <mxGeometry x="560" y="1040" width="120" height="60" as="geometry" />
        </mxCell>
        <mxCell id="zoGyx74wpEw2PJnLEwkn-26" value="" style="edgeStyle=orthogonalEdgeStyle;rounded=0;orthogonalLoop=1;jettySize=auto;html=1;" edge="1" parent="WIyWlLk6GJQsqaUBKTNV-1" source="zoGyx74wpEw2PJnLEwkn-29" target="zoGyx74wpEw2PJnLEwkn-31">
          <mxGeometry relative="1" as="geometry" />
        </mxCell>
        <mxCell id="zoGyx74wpEw2PJnLEwkn-27" value="" style="edgeStyle=orthogonalEdgeStyle;rounded=0;orthogonalLoop=1;jettySize=auto;html=1;" edge="1" parent="WIyWlLk6GJQsqaUBKTNV-1" source="zoGyx74wpEw2PJnLEwkn-29" target="zoGyx74wpEw2PJnLEwkn-33">
          <mxGeometry relative="1" as="geometry" />
        </mxCell>
        <mxCell id="zoGyx74wpEw2PJnLEwkn-28" style="edgeStyle=orthogonalEdgeStyle;rounded=0;orthogonalLoop=1;jettySize=auto;html=1;exitX=0.5;exitY=1;exitDx=0;exitDy=0;entryX=0.374;entryY=0.005;entryDx=0;entryDy=0;entryPerimeter=0;" edge="1" parent="WIyWlLk6GJQsqaUBKTNV-1" target="zoGyx74wpEw2PJnLEwkn-89">
          <mxGeometry relative="1" as="geometry">
            <mxPoint x="619.09" y="2175" as="targetPoint" />
            <Array as="points">
              <mxPoint x="619" y="2235" />
              <mxPoint x="621" y="2235" />
            </Array>
            <mxPoint x="619.09" y="1225" as="sourcePoint" />
          </mxGeometry>
        </mxCell>
        <mxCell id="zoGyx74wpEw2PJnLEwkn-29" value="user in&lt;div&gt;users&lt;/div&gt;" style="rhombus;whiteSpace=wrap;html=1;" vertex="1" parent="WIyWlLk6GJQsqaUBKTNV-1">
          <mxGeometry x="580" y="1170" width="80" height="80" as="geometry" />
        </mxCell>
        <mxCell id="zoGyx74wpEw2PJnLEwkn-30" style="edgeStyle=orthogonalEdgeStyle;rounded=0;orthogonalLoop=1;jettySize=auto;html=1;entryX=0.753;entryY=0.086;entryDx=0;entryDy=0;entryPerimeter=0;" edge="1" parent="WIyWlLk6GJQsqaUBKTNV-1" source="zoGyx74wpEw2PJnLEwkn-31" target="zoGyx74wpEw2PJnLEwkn-89">
          <mxGeometry relative="1" as="geometry">
            <mxPoint x="620" y="2250" as="targetPoint" />
            <Array as="points">
              <mxPoint x="780" y="2257" />
              <mxPoint x="693" y="2257" />
            </Array>
          </mxGeometry>
        </mxCell>
        <mxCell id="zoGyx74wpEw2PJnLEwkn-31" value="Registrasi&lt;div&gt;berhasil&lt;/div&gt;" style="shape=parallelogram;perimeter=parallelogramPerimeter;whiteSpace=wrap;html=1;fixedSize=1;" vertex="1" parent="WIyWlLk6GJQsqaUBKTNV-1">
          <mxGeometry x="720" y="1180" width="120" height="60" as="geometry" />
        </mxCell>
        <mxCell id="zoGyx74wpEw2PJnLEwkn-32" style="edgeStyle=orthogonalEdgeStyle;rounded=0;orthogonalLoop=1;jettySize=auto;html=1;exitX=0.5;exitY=1;exitDx=0;exitDy=0;entryX=0;entryY=0;entryDx=0;entryDy=0;" edge="1" parent="WIyWlLk6GJQsqaUBKTNV-1" source="zoGyx74wpEw2PJnLEwkn-33" target="zoGyx74wpEw2PJnLEwkn-89">
          <mxGeometry relative="1" as="geometry">
            <mxPoint x="460" y="2250" as="targetPoint" />
            <Array as="points">
              <mxPoint x="460" y="2281" />
            </Array>
          </mxGeometry>
        </mxCell>
        <mxCell id="zoGyx74wpEw2PJnLEwkn-33" value="Username sudah terdaftar" style="shape=parallelogram;perimeter=parallelogramPerimeter;whiteSpace=wrap;html=1;fixedSize=1;" vertex="1" parent="WIyWlLk6GJQsqaUBKTNV-1">
          <mxGeometry x="400" y="1180" width="120" height="60" as="geometry" />
        </mxCell>
        <mxCell id="zoGyx74wpEw2PJnLEwkn-34" value="yes" style="text;html=1;align=center;verticalAlign=middle;resizable=0;points=[];autosize=1;strokeColor=none;fillColor=none;" vertex="1" parent="WIyWlLk6GJQsqaUBKTNV-1">
          <mxGeometry x="640" y="1178" width="40" height="30" as="geometry" />
        </mxCell>
        <mxCell id="zoGyx74wpEw2PJnLEwkn-35" value="" style="edgeStyle=orthogonalEdgeStyle;rounded=0;orthogonalLoop=1;jettySize=auto;html=1;" edge="1" parent="WIyWlLk6GJQsqaUBKTNV-1" source="zoGyx74wpEw2PJnLEwkn-36" target="zoGyx74wpEw2PJnLEwkn-38">
          <mxGeometry relative="1" as="geometry" />
        </mxCell>
        <mxCell id="zoGyx74wpEw2PJnLEwkn-36" value="Input" style="shape=parallelogram;perimeter=parallelogramPerimeter;whiteSpace=wrap;html=1;fixedSize=1;" vertex="1" parent="WIyWlLk6GJQsqaUBKTNV-1">
          <mxGeometry x="1110" y="900" width="120" height="60" as="geometry" />
        </mxCell>
        <mxCell id="zoGyx74wpEw2PJnLEwkn-37" value="" style="edgeStyle=orthogonalEdgeStyle;rounded=0;orthogonalLoop=1;jettySize=auto;html=1;" edge="1" parent="WIyWlLk6GJQsqaUBKTNV-1" source="zoGyx74wpEw2PJnLEwkn-38" target="zoGyx74wpEw2PJnLEwkn-40">
          <mxGeometry relative="1" as="geometry" />
        </mxCell>
        <mxCell id="zoGyx74wpEw2PJnLEwkn-38" value="Username&lt;div&gt;Password&lt;/div&gt;" style="shape=parallelogram;perimeter=parallelogramPerimeter;whiteSpace=wrap;html=1;fixedSize=1;" vertex="1" parent="WIyWlLk6GJQsqaUBKTNV-1">
          <mxGeometry x="1110" y="1040" width="120" height="60" as="geometry" />
        </mxCell>
        <mxCell id="zoGyx74wpEw2PJnLEwkn-39" value="" style="edgeStyle=orthogonalEdgeStyle;rounded=0;orthogonalLoop=1;jettySize=auto;html=1;" edge="1" parent="WIyWlLk6GJQsqaUBKTNV-1" source="zoGyx74wpEw2PJnLEwkn-40" target="zoGyx74wpEw2PJnLEwkn-42">
          <mxGeometry relative="1" as="geometry" />
        </mxCell>
        <mxCell id="zoGyx74wpEw2PJnLEwkn-40" value="Login berhasil" style="shape=parallelogram;perimeter=parallelogramPerimeter;whiteSpace=wrap;html=1;fixedSize=1;" vertex="1" parent="WIyWlLk6GJQsqaUBKTNV-1">
          <mxGeometry x="1110" y="1180" width="120" height="60" as="geometry" />
        </mxCell>
        <mxCell id="zoGyx74wpEw2PJnLEwkn-41" value="" style="edgeStyle=orthogonalEdgeStyle;rounded=0;orthogonalLoop=1;jettySize=auto;html=1;" edge="1" parent="WIyWlLk6GJQsqaUBKTNV-1" source="zoGyx74wpEw2PJnLEwkn-42" target="zoGyx74wpEw2PJnLEwkn-44">
          <mxGeometry relative="1" as="geometry" />
        </mxCell>
        <mxCell id="zoGyx74wpEw2PJnLEwkn-42" value="Sistem Reservasi&lt;div&gt;SPA&lt;/div&gt;" style="whiteSpace=wrap;html=1;" vertex="1" parent="WIyWlLk6GJQsqaUBKTNV-1">
          <mxGeometry x="1110" y="1320" width="120" height="60" as="geometry" />
        </mxCell>
        <mxCell id="zoGyx74wpEw2PJnLEwkn-43" value="" style="edgeStyle=orthogonalEdgeStyle;rounded=0;orthogonalLoop=1;jettySize=auto;html=1;" edge="1" parent="WIyWlLk6GJQsqaUBKTNV-1" source="zoGyx74wpEw2PJnLEwkn-44" target="zoGyx74wpEw2PJnLEwkn-46">
          <mxGeometry relative="1" as="geometry" />
        </mxCell>
        <mxCell id="zoGyx74wpEw2PJnLEwkn-44" value="Pilih opsi&amp;nbsp;&lt;div&gt;1/2/3/4/5&lt;/div&gt;" style="shape=parallelogram;perimeter=parallelogramPerimeter;whiteSpace=wrap;html=1;fixedSize=1;" vertex="1" parent="WIyWlLk6GJQsqaUBKTNV-1">
          <mxGeometry x="1110" y="1460" width="120" height="60" as="geometry" />
        </mxCell>
        <mxCell id="zoGyx74wpEw2PJnLEwkn-45" value="" style="edgeStyle=orthogonalEdgeStyle;rounded=0;orthogonalLoop=1;jettySize=auto;html=1;" edge="1" parent="WIyWlLk6GJQsqaUBKTNV-1" source="zoGyx74wpEw2PJnLEwkn-46" target="zoGyx74wpEw2PJnLEwkn-48">
          <mxGeometry relative="1" as="geometry" />
        </mxCell>
        <mxCell id="zoGyx74wpEw2PJnLEwkn-46" value="Layanan" style="whiteSpace=wrap;html=1;" vertex="1" parent="WIyWlLk6GJQsqaUBKTNV-1">
          <mxGeometry x="1110" y="1600" width="120" height="60" as="geometry" />
        </mxCell>
        <mxCell id="zoGyx74wpEw2PJnLEwkn-47" value="" style="edgeStyle=orthogonalEdgeStyle;rounded=0;orthogonalLoop=1;jettySize=auto;html=1;" edge="1" parent="WIyWlLk6GJQsqaUBKTNV-1" source="zoGyx74wpEw2PJnLEwkn-48" target="zoGyx74wpEw2PJnLEwkn-50">
          <mxGeometry relative="1" as="geometry" />
        </mxCell>
        <mxCell id="zoGyx74wpEw2PJnLEwkn-48" value="Pilih nomor&amp;nbsp;&lt;div&gt;layanan&lt;/div&gt;" style="shape=parallelogram;perimeter=parallelogramPerimeter;whiteSpace=wrap;html=1;fixedSize=1;" vertex="1" parent="WIyWlLk6GJQsqaUBKTNV-1">
          <mxGeometry x="1110" y="1740" width="120" height="60" as="geometry" />
        </mxCell>
        <mxCell id="zoGyx74wpEw2PJnLEwkn-49" value="" style="edgeStyle=orthogonalEdgeStyle;rounded=0;orthogonalLoop=1;jettySize=auto;html=1;" edge="1" parent="WIyWlLk6GJQsqaUBKTNV-1" source="zoGyx74wpEw2PJnLEwkn-50" target="zoGyx74wpEw2PJnLEwkn-52">
          <mxGeometry relative="1" as="geometry" />
        </mxCell>
        <mxCell id="zoGyx74wpEw2PJnLEwkn-50" value="Tanggal reservasi&lt;div&gt;waktu reservasi&lt;/div&gt;" style="shape=parallelogram;perimeter=parallelogramPerimeter;whiteSpace=wrap;html=1;fixedSize=1;" vertex="1" parent="WIyWlLk6GJQsqaUBKTNV-1">
          <mxGeometry x="1110" y="1880" width="120" height="60" as="geometry" />
        </mxCell>
        <mxCell id="zoGyx74wpEw2PJnLEwkn-51" style="edgeStyle=orthogonalEdgeStyle;rounded=0;orthogonalLoop=1;jettySize=auto;html=1;entryX=1;entryY=0.5;entryDx=0;entryDy=0;" edge="1" parent="WIyWlLk6GJQsqaUBKTNV-1" source="zoGyx74wpEw2PJnLEwkn-52" target="zoGyx74wpEw2PJnLEwkn-89">
          <mxGeometry relative="1" as="geometry">
            <Array as="points">
              <mxPoint x="1170" y="2334" />
            </Array>
          </mxGeometry>
        </mxCell>
        <mxCell id="zoGyx74wpEw2PJnLEwkn-52" value="Reservasi berhasil&lt;div&gt;ditambahkan&lt;/div&gt;" style="shape=parallelogram;perimeter=parallelogramPerimeter;whiteSpace=wrap;html=1;fixedSize=1;" vertex="1" parent="WIyWlLk6GJQsqaUBKTNV-1">
          <mxGeometry x="1110" y="2020" width="120" height="60" as="geometry" />
        </mxCell>
        <mxCell id="zoGyx74wpEw2PJnLEwkn-53" value="" style="edgeStyle=orthogonalEdgeStyle;rounded=0;orthogonalLoop=1;jettySize=auto;html=1;" edge="1" parent="WIyWlLk6GJQsqaUBKTNV-1" source="zoGyx74wpEw2PJnLEwkn-55" target="zoGyx74wpEw2PJnLEwkn-57">
          <mxGeometry relative="1" as="geometry" />
        </mxCell>
        <mxCell id="zoGyx74wpEw2PJnLEwkn-54" value="" style="edgeStyle=orthogonalEdgeStyle;rounded=0;orthogonalLoop=1;jettySize=auto;html=1;" edge="1" parent="WIyWlLk6GJQsqaUBKTNV-1" source="zoGyx74wpEw2PJnLEwkn-55" target="zoGyx74wpEw2PJnLEwkn-69">
          <mxGeometry relative="1" as="geometry" />
        </mxCell>
        <mxCell id="zoGyx74wpEw2PJnLEwkn-55" value="3" style="rhombus;whiteSpace=wrap;html=1;" vertex="1" parent="WIyWlLk6GJQsqaUBKTNV-1">
          <mxGeometry x="1370" y="730" width="80" height="80" as="geometry" />
        </mxCell>
        <mxCell id="zoGyx74wpEw2PJnLEwkn-56" value="" style="edgeStyle=orthogonalEdgeStyle;rounded=0;orthogonalLoop=1;jettySize=auto;html=1;" edge="1" parent="WIyWlLk6GJQsqaUBKTNV-1" source="zoGyx74wpEw2PJnLEwkn-57" target="zoGyx74wpEw2PJnLEwkn-59">
          <mxGeometry relative="1" as="geometry" />
        </mxCell>
        <mxCell id="zoGyx74wpEw2PJnLEwkn-57" value="Ubah Reservasi" style="whiteSpace=wrap;html=1;" vertex="1" parent="WIyWlLk6GJQsqaUBKTNV-1">
          <mxGeometry x="1350" y="900" width="120" height="60" as="geometry" />
        </mxCell>
        <mxCell id="zoGyx74wpEw2PJnLEwkn-58" value="" style="edgeStyle=orthogonalEdgeStyle;rounded=0;orthogonalLoop=1;jettySize=auto;html=1;" edge="1" parent="WIyWlLk6GJQsqaUBKTNV-1" source="zoGyx74wpEw2PJnLEwkn-59" target="zoGyx74wpEw2PJnLEwkn-61">
          <mxGeometry relative="1" as="geometry" />
        </mxCell>
        <mxCell id="zoGyx74wpEw2PJnLEwkn-59" value="Masukkan Nomor&amp;nbsp;&lt;div&gt;Reservasi yang&lt;/div&gt;&lt;div&gt;ingin diubah&lt;/div&gt;" style="shape=parallelogram;perimeter=parallelogramPerimeter;whiteSpace=wrap;html=1;fixedSize=1;" vertex="1" parent="WIyWlLk6GJQsqaUBKTNV-1">
          <mxGeometry x="1335" y="1040" width="150" height="90" as="geometry" />
        </mxCell>
        <mxCell id="zoGyx74wpEw2PJnLEwkn-60" value="" style="edgeStyle=orthogonalEdgeStyle;rounded=0;orthogonalLoop=1;jettySize=auto;html=1;" edge="1" parent="WIyWlLk6GJQsqaUBKTNV-1" source="zoGyx74wpEw2PJnLEwkn-61" target="zoGyx74wpEw2PJnLEwkn-63">
          <mxGeometry relative="1" as="geometry" />
        </mxCell>
        <mxCell id="zoGyx74wpEw2PJnLEwkn-61" value="Masukkan Nama&lt;div&gt;Baru&lt;/div&gt;" style="shape=parallelogram;perimeter=parallelogramPerimeter;whiteSpace=wrap;html=1;fixedSize=1;" vertex="1" parent="WIyWlLk6GJQsqaUBKTNV-1">
          <mxGeometry x="1350" y="1180" width="120" height="60" as="geometry" />
        </mxCell>
        <mxCell id="zoGyx74wpEw2PJnLEwkn-62" value="" style="edgeStyle=orthogonalEdgeStyle;rounded=0;orthogonalLoop=1;jettySize=auto;html=1;" edge="1" parent="WIyWlLk6GJQsqaUBKTNV-1" source="zoGyx74wpEw2PJnLEwkn-63" target="zoGyx74wpEw2PJnLEwkn-65">
          <mxGeometry relative="1" as="geometry" />
        </mxCell>
        <mxCell id="zoGyx74wpEw2PJnLEwkn-63" value="Pilih layanan Baru" style="whiteSpace=wrap;html=1;" vertex="1" parent="WIyWlLk6GJQsqaUBKTNV-1">
          <mxGeometry x="1350" y="1320" width="120" height="60" as="geometry" />
        </mxCell>
        <mxCell id="zoGyx74wpEw2PJnLEwkn-64" value="" style="edgeStyle=orthogonalEdgeStyle;rounded=0;orthogonalLoop=1;jettySize=auto;html=1;" edge="1" parent="WIyWlLk6GJQsqaUBKTNV-1" source="zoGyx74wpEw2PJnLEwkn-65" target="zoGyx74wpEw2PJnLEwkn-67">
          <mxGeometry relative="1" as="geometry" />
        </mxCell>
        <mxCell id="zoGyx74wpEw2PJnLEwkn-65" value="Input" style="shape=parallelogram;perimeter=parallelogramPerimeter;whiteSpace=wrap;html=1;fixedSize=1;" vertex="1" parent="WIyWlLk6GJQsqaUBKTNV-1">
          <mxGeometry x="1350" y="1460" width="120" height="60" as="geometry" />
        </mxCell>
        <mxCell id="zoGyx74wpEw2PJnLEwkn-66" style="edgeStyle=orthogonalEdgeStyle;rounded=0;orthogonalLoop=1;jettySize=auto;html=1;exitX=0.5;exitY=1;exitDx=0;exitDy=0;" edge="1" parent="WIyWlLk6GJQsqaUBKTNV-1" source="zoGyx74wpEw2PJnLEwkn-67" target="zoGyx74wpEw2PJnLEwkn-89">
          <mxGeometry relative="1" as="geometry">
            <Array as="points">
              <mxPoint x="1410" y="2290" />
            </Array>
          </mxGeometry>
        </mxCell>
        <mxCell id="zoGyx74wpEw2PJnLEwkn-67" value="Paket Baru&lt;div&gt;Waktu baru&lt;/div&gt;&lt;div&gt;tanggal Baru&lt;/div&gt;" style="shape=parallelogram;perimeter=parallelogramPerimeter;whiteSpace=wrap;html=1;fixedSize=1;" vertex="1" parent="WIyWlLk6GJQsqaUBKTNV-1">
          <mxGeometry x="1350" y="1600" width="120" height="60" as="geometry" />
        </mxCell>
        <mxCell id="zoGyx74wpEw2PJnLEwkn-68" value="" style="edgeStyle=orthogonalEdgeStyle;rounded=0;orthogonalLoop=1;jettySize=auto;html=1;" edge="1" parent="WIyWlLk6GJQsqaUBKTNV-1" source="zoGyx74wpEw2PJnLEwkn-69" target="zoGyx74wpEw2PJnLEwkn-71">
          <mxGeometry relative="1" as="geometry" />
        </mxCell>
        <mxCell id="zoGyx74wpEw2PJnLEwkn-69" value="4" style="rhombus;whiteSpace=wrap;html=1;" vertex="1" parent="WIyWlLk6GJQsqaUBKTNV-1">
          <mxGeometry x="1654" y="730" width="80" height="80" as="geometry" />
        </mxCell>
        <mxCell id="zoGyx74wpEw2PJnLEwkn-70" value="" style="edgeStyle=orthogonalEdgeStyle;rounded=0;orthogonalLoop=1;jettySize=auto;html=1;" edge="1" parent="WIyWlLk6GJQsqaUBKTNV-1" source="zoGyx74wpEw2PJnLEwkn-71" target="zoGyx74wpEw2PJnLEwkn-73">
          <mxGeometry relative="1" as="geometry" />
        </mxCell>
        <mxCell id="zoGyx74wpEw2PJnLEwkn-71" value="Hapus Reservasi" style="whiteSpace=wrap;html=1;" vertex="1" parent="WIyWlLk6GJQsqaUBKTNV-1">
          <mxGeometry x="1634" y="900" width="120" height="60" as="geometry" />
        </mxCell>
        <mxCell id="zoGyx74wpEw2PJnLEwkn-72" value="" style="edgeStyle=orthogonalEdgeStyle;rounded=0;orthogonalLoop=1;jettySize=auto;html=1;" edge="1" parent="WIyWlLk6GJQsqaUBKTNV-1" source="zoGyx74wpEw2PJnLEwkn-73" target="zoGyx74wpEw2PJnLEwkn-75">
          <mxGeometry relative="1" as="geometry" />
        </mxCell>
        <mxCell id="zoGyx74wpEw2PJnLEwkn-73" value="masukkan Nomor&lt;div&gt;Yang ingin di&lt;/div&gt;&lt;div&gt;Hapus&lt;/div&gt;" style="shape=parallelogram;perimeter=parallelogramPerimeter;whiteSpace=wrap;html=1;fixedSize=1;" vertex="1" parent="WIyWlLk6GJQsqaUBKTNV-1">
          <mxGeometry x="1616" y="1040" width="156" height="90" as="geometry" />
        </mxCell>
        <mxCell id="zoGyx74wpEw2PJnLEwkn-74" style="edgeStyle=orthogonalEdgeStyle;rounded=0;orthogonalLoop=1;jettySize=auto;html=1;" edge="1" parent="WIyWlLk6GJQsqaUBKTNV-1">
          <mxGeometry relative="1" as="geometry">
            <Array as="points">
              <mxPoint x="1704" y="2390" />
            </Array>
            <mxPoint x="1704.090909090909" y="1250" as="sourcePoint" />
            <mxPoint x="720" y="2390" as="targetPoint" />
          </mxGeometry>
        </mxCell>
        <mxCell id="zoGyx74wpEw2PJnLEwkn-75" value="Berhasil dihapus" style="whiteSpace=wrap;html=1;" vertex="1" parent="WIyWlLk6GJQsqaUBKTNV-1">
          <mxGeometry x="1634" y="1190" width="120" height="60" as="geometry" />
        </mxCell>
        <mxCell id="zoGyx74wpEw2PJnLEwkn-76" value="" style="edgeStyle=orthogonalEdgeStyle;rounded=0;orthogonalLoop=1;jettySize=auto;html=1;" edge="1" parent="WIyWlLk6GJQsqaUBKTNV-1" source="zoGyx74wpEw2PJnLEwkn-77" target="zoGyx74wpEw2PJnLEwkn-79">
          <mxGeometry relative="1" as="geometry" />
        </mxCell>
        <mxCell id="zoGyx74wpEw2PJnLEwkn-77" value="Sistem Reservasi&lt;div&gt;SPA&lt;/div&gt;" style="whiteSpace=wrap;html=1;" vertex="1" parent="WIyWlLk6GJQsqaUBKTNV-1">
          <mxGeometry x="140" y="920" width="120" height="60" as="geometry" />
        </mxCell>
        <mxCell id="zoGyx74wpEw2PJnLEwkn-78" value="" style="edgeStyle=orthogonalEdgeStyle;rounded=0;orthogonalLoop=1;jettySize=auto;html=1;" edge="1" parent="WIyWlLk6GJQsqaUBKTNV-1" source="zoGyx74wpEw2PJnLEwkn-79">
          <mxGeometry relative="1" as="geometry">
            <mxPoint x="200.00000000000023" y="1200" as="targetPoint" />
          </mxGeometry>
        </mxCell>
        <mxCell id="zoGyx74wpEw2PJnLEwkn-79" value="Pilih Opsi&amp;nbsp;&lt;div&gt;1/2&lt;/div&gt;" style="shape=parallelogram;perimeter=parallelogramPerimeter;whiteSpace=wrap;html=1;fixedSize=1;" vertex="1" parent="WIyWlLk6GJQsqaUBKTNV-1">
          <mxGeometry x="140" y="1060" width="120" height="60" as="geometry" />
        </mxCell>
        <mxCell id="zoGyx74wpEw2PJnLEwkn-80" value="" style="edgeStyle=orthogonalEdgeStyle;rounded=0;orthogonalLoop=1;jettySize=auto;html=1;" edge="1" parent="WIyWlLk6GJQsqaUBKTNV-1" source="zoGyx74wpEw2PJnLEwkn-82" target="zoGyx74wpEw2PJnLEwkn-84">
          <mxGeometry relative="1" as="geometry" />
        </mxCell>
        <mxCell id="zoGyx74wpEw2PJnLEwkn-81" value="" style="edgeStyle=orthogonalEdgeStyle;rounded=0;orthogonalLoop=1;jettySize=auto;html=1;" edge="1" parent="WIyWlLk6GJQsqaUBKTNV-1" source="zoGyx74wpEw2PJnLEwkn-82" target="zoGyx74wpEw2PJnLEwkn-86">
          <mxGeometry relative="1" as="geometry" />
        </mxCell>
        <mxCell id="zoGyx74wpEw2PJnLEwkn-82" value="daftar reservasi" style="rhombus;whiteSpace=wrap;html=1;" vertex="1" parent="WIyWlLk6GJQsqaUBKTNV-1">
          <mxGeometry x="140" y="1200" width="120" height="110" as="geometry" />
        </mxCell>
        <mxCell id="zoGyx74wpEw2PJnLEwkn-83" style="edgeStyle=orthogonalEdgeStyle;rounded=0;orthogonalLoop=1;jettySize=auto;html=1;exitX=0.5;exitY=1;exitDx=0;exitDy=0;" edge="1" parent="WIyWlLk6GJQsqaUBKTNV-1" source="zoGyx74wpEw2PJnLEwkn-84">
          <mxGeometry relative="1" as="geometry">
            <Array as="points">
              <mxPoint x="10" y="1285" />
              <mxPoint x="10" y="2385" />
              <mxPoint x="530" y="2385" />
            </Array>
            <mxPoint x="10.090909090908553" y="1370" as="sourcePoint" />
            <mxPoint x="550" y="2383" as="targetPoint" />
          </mxGeometry>
        </mxCell>
        <mxCell id="zoGyx74wpEw2PJnLEwkn-84" value="Pilihan tidak&lt;div&gt;valid&lt;/div&gt;" style="shape=parallelogram;perimeter=parallelogramPerimeter;whiteSpace=wrap;html=1;fixedSize=1;" vertex="1" parent="WIyWlLk6GJQsqaUBKTNV-1">
          <mxGeometry x="-60" y="1225" width="120" height="60" as="geometry" />
        </mxCell>
        <mxCell id="zoGyx74wpEw2PJnLEwkn-85" value="" style="edgeStyle=orthogonalEdgeStyle;rounded=0;orthogonalLoop=1;jettySize=auto;html=1;" edge="1" parent="WIyWlLk6GJQsqaUBKTNV-1" source="zoGyx74wpEw2PJnLEwkn-86" target="zoGyx74wpEw2PJnLEwkn-88">
          <mxGeometry relative="1" as="geometry" />
        </mxCell>
        <mxCell id="zoGyx74wpEw2PJnLEwkn-86" value="Reservasi&amp;nbsp;&lt;div&gt;Berhasil&lt;/div&gt;" style="shape=parallelogram;perimeter=parallelogramPerimeter;whiteSpace=wrap;html=1;fixedSize=1;" vertex="1" parent="WIyWlLk6GJQsqaUBKTNV-1">
          <mxGeometry x="140" y="1415" width="120" height="60" as="geometry" />
        </mxCell>
        <mxCell id="zoGyx74wpEw2PJnLEwkn-87" style="edgeStyle=orthogonalEdgeStyle;rounded=0;orthogonalLoop=1;jettySize=auto;html=1;" edge="1" parent="WIyWlLk6GJQsqaUBKTNV-1" source="zoGyx74wpEw2PJnLEwkn-88" target="zoGyx74wpEw2PJnLEwkn-89">
          <mxGeometry relative="1" as="geometry">
            <Array as="points">
              <mxPoint x="310" y="1585" />
              <mxPoint x="310" y="2340" />
            </Array>
          </mxGeometry>
        </mxCell>
        <mxCell id="zoGyx74wpEw2PJnLEwkn-88" value="Logout Berhasil" style="shape=parallelogram;perimeter=parallelogramPerimeter;whiteSpace=wrap;html=1;fixedSize=1;" vertex="1" parent="WIyWlLk6GJQsqaUBKTNV-1">
          <mxGeometry x="140" y="1555" width="120" height="60" as="geometry" />
        </mxCell>
        <mxCell id="zoGyx74wpEw2PJnLEwkn-89" value="Selesai" style="ellipse;whiteSpace=wrap;html=1;" vertex="1" parent="WIyWlLk6GJQsqaUBKTNV-1">
          <mxGeometry x="550" y="2258" width="190" height="152" as="geometry" />
        </mxCell>
      </root>
    </mxGraphModel>
  </diagram>
</mxfile>
